# xmcd
#
# Track frame offsets:
# 150
# 20807
# 44644
# 60610
# 76924
# 95625
# 110284
# 129210
# 152933
# 169862
# 186252
# 202710
# 222810
# 241738
#
# Disc length: 3443 seconds
#
#
# Revision: 0
# Processed by: cddbd v1.5.2PL0 Copyright (c) Steve Scherf et al.
# Submitted via: FreeRIP 2.945 
#
DISCID=b80d710e
DTITLE=Alexandre Pires - O Melhor de Alexandre Pires
DYEAR=2007
DGENRE=PAGODE
TTITLE0=É por Amor
TTITLE1=Necessidade
TTITLE2=Tira Ela de Mim
TTITLE3=Apelo
TTITLE4=Santo Santo - com Gloria Estefan
TTITLE5=Coisa do Destino
TTITLE6=Usted se Me Llevó La Vida
TTITLE7=Dos Locos Enamorados
TTITLE8=Sem Teu Amor Nada é Igual
TTITLE9=Ai, Coração
TTITLE10=Errei por Te Amar
TTITLE11=Se Ela Me Amasse
TTITLE12=Estrela Guia
TTITLE13=Prisioneiro do Amor
EXTD=
EXTT0=
EXTT1=
EXTT2=
EXTT3=
EXTT4=
EXTT5=
EXTT6=
EXTT7=
EXTT8=
EXTT9=
EXTT10=
EXTT11=
EXTT12=
EXTT13=
PLAYORDER=
